<?xml version="1.0" encoding="iso-8859-1"?>
<!-- Uploaded to: SVG Repo, www.svgrepo.com, Generator: SVG Repo Mixer Tools -->
<svg fill="#000000" height="800px" width="800px" version="1.1" id="Layer_1" xmlns="http://www.w3.org/2000/svg" xmlns:xlink="http://www.w3.org/1999/xlink" 
	 viewBox="0 0 512 512" xml:space="preserve">
<g>
	<g>
		<path d="M489.989,21.721c-28.992-28.967-76.107-28.955-105.05,0c-13.073,13.068-20.583,30.162-21.566,48.472l-13.508-13.508
			c-14.459-14.46-37.987-14.441-52.471,0.055c-7.036,7.042-10.917,16.37-10.917,26.272c0,9.89,3.857,19.193,10.869,26.199
			l1.215,1.217c-22.572-1.162-44.452,7.092-62.439,25.097c-17.736,17.732-26.175,39.365-24.797,62.753l-1.523-1.523
			c-14.459-14.46-37.987-14.429-52.471,0.042c0,0.006,0,0.006,0,0.006c-7.036,7.042-10.917,16.37-10.917,26.272
			c0,9.89,3.857,19.199,10.869,26.199l1.523,1.525c-23.4-1.41-45.02,7.056-62.759,24.795
			c-17.736,17.728-26.163,39.356-24.788,62.746l-1.52,1.413c-6.988-6.988-16.285-7.904-26.187-7.904c-0.024,0-0.036,0-0.048,0
			c-9.914,0-21.992,0.946-21.992,7.952c0,0.006,0-1.461,0-1.461s0-0.734,0-0.729c-24.76,14.478-16.624,37.639-2.176,52.099
			l42.762,43.64L0.294,494.539L17.535,512l61.139-61.305l43.76,43.813c7.218,7.216,16.663,10.821,26.154,10.814
			c9.515,0,19.015-3.63,26.265-10.878c7.04-7.042,10.911-16.372,10.911-26.273c0-9.89-3.863-19.195-10.875-26.199l-1.303-1.301
			c1.405,0.072,2.814,0.242,4.213,0.242c21.097,0,41.42-8.36,58.31-25.256c17.736-17.728,26.175-39.361,24.8-62.747l1.52,1.523
			c7.218,7.218,16.697,10.821,26.187,10.821c9.503,0,19.03-3.627,26.284-10.869c14.484-14.478,14.508-38.017,0.06-52.477
			l-1.306-1.307c1.403,0.074,2.811,0.243,4.207,0.243c21.097,0,41.42-8.354,58.322-25.25c17.993-17.993,26.25-39.873,25.096-62.436
			l1.212,1.212c7.23,7.218,16.708,10.821,26.199,10.821c9.515,0,19.03-3.627,26.272-10.875c7.036-7.036,10.917-16.37,10.929-26.272
			c0-9.89-3.857-19.193-10.869-26.205l-13.716-13.716c17.721-0.914,35.179-7.856,48.68-21.351
			C518.945,97.81,518.945,50.683,489.989,21.721z M157.332,476.935c-4.836,4.836-12.646,4.854-17.458,0.054l-43.826-43.825v-0.002
			l-17.506-17.507l-0.003,0.002l-44.265-43.822c-4.872-4.878-0.381-12.549-0.381-17.452c0,0,0,2.929,0,2.923
			c0-2.333,6.335-0.698,9.636-0.698c0.012,0,0.012,0,0.024,0c3.288,0,6.371-1.659,8.681,0.65L157.38,460.95
			c2.333,2.327,3.615,4.676,3.615,7.954C160.995,472.191,159.689,474.571,157.332,476.935z M218.604,398.15
			c-32.305,32.286-72.057,15.475-96.285-8.753c-15.052-15.058-24.361-32.637-26.211-49.496c-1.898-17.307,4.135-33.49,17.446-46.8
			c11.715-11.715,25.655-17.797,40.622-17.797c2.043,0,4.111,0.115,6.178,0.344c16.866,1.844,34.444,11.153,49.497,26.205
			c15.052,15.052,24.361,32.631,26.211,49.49C237.96,368.65,231.915,384.833,218.604,398.15z M297.395,336.866
			c-4.848,4.848-12.658,4.848-17.458,0.06L174.79,231.761c-2.333-2.327-3.615-5.41-3.615-8.681c0-3.289,1.305-6.401,3.663-8.771
			c4.848-4.799,12.658-4.848,17.458-0.048l105.159,105.153C302.328,324.292,302.303,331.963,297.395,336.866z M358.679,258.087
			c-32.329,32.305-72.081,15.463-96.297-8.759c-15.052-15.052-24.361-32.631-26.211-49.49c-1.898-17.307,4.147-33.49,17.458-46.807
			c12.755-12.761,26.683-17.851,40.345-17.851c20.901,0,41.209,11.906,55.868,26.53l0.185,0.186
			C374.199,186.132,390.938,225.82,358.679,258.087z M437.445,196.809c-4.8,4.812-12.622,4.86-17.446,0.049l-52.568-52.574
			l-52.58-52.585c-2.333-2.327-3.615-5.41-3.615-8.687c0-3.289,1.306-6.402,3.663-8.766c4.848-4.824,12.658-4.842,17.458-0.054
			l52.549,52.546c0.012,0.012,0.018,0.023,0.03,0.033c0.006,0.006,0.012,0.008,0.015,0.014l52.564,52.56
			c2.333,2.333,3.615,5.416,3.615,8.693C441.133,191.326,439.827,194.433,437.445,196.809z M472.482,109.265
			c-19.302,19.285-50.687,19.3-70.019,0.014l-0.033-0.03c-9.346-9.354-14.493-21.783-14.493-35.002
			c0-13.226,5.15-25.661,14.508-35.019c9.66-9.654,22.33-14.478,35.025-14.478c12.67,0,25.353,4.83,35.013,14.478
			C491.79,58.535,491.79,89.957,472.482,109.265z"/>
	</g>
</g>
</svg>