<?xml version="1.0" encoding="iso-8859-1"?>
<!-- Uploaded to: SVG Repo, www.svgrepo.com, Generator: SVG Repo Mixer Tools -->
<svg fill="#000000" height="800px" width="800px" version="1.1" id="Layer_1" xmlns="http://www.w3.org/2000/svg" xmlns:xlink="http://www.w3.org/1999/xlink" 
	 viewBox="0 0 512 512" xml:space="preserve">
<g>
	<g>
		<path d="M511.304,27.011c-1.53-3.94-5.32-6.53-9.545-6.53H10.241c-4.225,0-8.015,2.59-9.545,6.53
			c-1.53,3.93-0.485,8.41,2.625,11.26L245.76,260.507v210.532H133.12v20.48h112.64h20.48h102.4v-20.48h-102.4V260.507
			L508.679,38.271C511.789,35.421,512.834,30.941,511.304,27.011z M256,242.11L125.932,122.88h133.583l40.445,40.44
			c2,2,4.62,3,7.24,3c2.62,0,5.24-1,7.24-3l40.445-40.44h31.184L256,242.11z M278.235,112.64l28.965-28.96l28.965,28.96L307.2,141.6
			L278.235,112.64z M408.41,102.4h-53.525l-40.445-40.44c-4-4-10.48-4-14.48,0l-40.445,40.44H103.59l-67.025-61.44h438.869
			L408.41,102.4z"/>
	</g>
</g>
</svg>